<svg xmlns="http://www.w3.org/2000/svg" width="81.672" height="81.672" viewBox="0 0 81.672 81.672"><defs><linearGradient x1="240.358" y1="189.089" x2="239.092" y2="203.556" gradientUnits="userSpaceOnUse" id="a"><stop offset="0" stop-color="#1a1a1a" stop-opacity="0"/><stop offset="1" stop-color="#1a1a1a" stop-opacity=".541"/></linearGradient><linearGradient x1="215.405" y1="174.425" x2="217.71" y2="164.992" gradientUnits="userSpaceOnUse" id="b"><stop offset="0" stop-color="#fb00ff"/><stop offset=".248" stop-color="#7cfefc"/><stop offset=".481" stop-color="#ce67fe"/><stop offset=".684" stop-color="#34bbfe"/><stop offset=".849" stop-color="#fe8bf4"/><stop offset="1" stop-color="#45f9f9"/></linearGradient><linearGradient x1="250.528" y1="160.858" x2="240.318" y2="152.43" gradientUnits="userSpaceOnUse" id="c"><stop offset="0" stop-color="#fb00ff"/><stop offset=".248" stop-color="#7cfefc"/><stop offset=".481" stop-color="#ce67fe"/><stop offset=".684" stop-color="#34bbfe"/><stop offset=".849" stop-color="#fe8bf4"/><stop offset="1" stop-color="#45f9f9"/></linearGradient><linearGradient x1="255.229" y1="195.738" x2="264.557" y2="186.512" gradientUnits="userSpaceOnUse" id="d"><stop offset="0" stop-color="#fb00ff"/><stop offset=".248" stop-color="#7cfefc"/><stop offset=".481" stop-color="#ce67fe"/><stop offset=".684" stop-color="#34bbfe"/><stop offset=".849" stop-color="#fe8bf4"/><stop offset="1" stop-color="#45f9f9"/></linearGradient><linearGradient x1="238.883" y1="182.025" x2="248.036" y2="180.894" gradientUnits="userSpaceOnUse" id="e"><stop offset="0" stop-color="#fb00ff"/><stop offset=".248" stop-color="#7cfefc"/><stop offset=".481" stop-color="#ce67fe"/><stop offset=".684" stop-color="#34bbfe"/><stop offset=".849" stop-color="#fe8bf4"/><stop offset="1" stop-color="#45f9f9"/></linearGradient><linearGradient x1="227.298" y1="187.523" x2="235.293" y2="194.757" gradientUnits="userSpaceOnUse" id="f"><stop offset="0" stop-color="#fb00ff"/><stop offset=".248" stop-color="#7cfefc"/><stop offset=".481" stop-color="#ce67fe"/><stop offset=".684" stop-color="#34bbfe"/><stop offset=".849" stop-color="#fe8bf4"/><stop offset="1" stop-color="#45f9f9"/></linearGradient></defs><g stroke-width="0" stroke-miterlimit="10"><path d="M17.763 81.672C7.953 81.672 0 73.719 0 63.909V17.763C0 7.953 7.953 0 17.763 0h46.146c9.81 0 17.763 7.953 17.763 17.763v46.146c0 9.81-7.953 17.763-17.763 17.763z" fill="#cc9c70"/><path d="M19.051 78.923c-9.003 0-16.302-7.299-16.302-16.302v-43.57c0-9.003 7.299-16.302 16.302-16.302h43.57c9.003 0 16.302 7.299 16.302 16.302v43.57c0 9.003-7.299 16.302-16.302 16.302z" fill="#ffdebf"/><path d="m13.104 33.265 6.916-12.514 9.4 4.971.839-2.565L43.251 8.948l9.521 16.099-.338 2.028 7.732-2.096 8.18 12.769L57.52 60.215l2.426 2.629.387 5.205-3.764 2.905-5.826-.233-1.906-.602-5.768 1.474-9.137-3.394-6.024 1.532-8.513-2.16-3.434-4.802 2.458-7.089 2.144-1.84z" fill="#dab38e"/><path d="m31.918 24.412 10.92-12.531 7.698 13.426-10.025 32.224-6.265 6.444-3.402-7.34z" fill="#e9e9e9"/><path d="m31.918 24.412 10.92-12.531-7.708 15.025-.884 37.07-3.402-7.34z" fill="#dadada"/><path d="m44.854 27.319-2.015-15.438 7.697 13.426-10.025 32.224-6.265 6.444z" fill="#fff"/><path d="m34.222 60.481-3.224 5.42-5.635-3.748-10.031-29.11 5.258-9.863 9.112 4.77z" fill="#e9e9e9"/><path d="m28.005 58.746-2.642 3.407-10.031-29.11 5.258-9.863-.4 10.075z" fill="#dadada"/><path d="m39.758 59.133 7.63-28.214 11.86-3.967 7.092 10.66-13.718 27.794-9.215.355z" fill="#e9e9e9"/><path d="m39.758 59.133 7.63-28.214 11.86-3.967-8.75 8.626-7.091 30.183z" fill="#dadada"/><path d="M47.461 65.528 58.725 39.64l.523-12.688 7.092 10.66-13.718 27.794zm-13.239-5.047-3.224 5.42.4-7.384-4.35-27.338-6.458-7.999 9.112 4.77z" fill="#fff"/><path d="m224.352 201.248-4.018-12.159 38.782.546-6.8 13.921z" fill="url(#a)" transform="translate(-199.164 -139.164)"/><path d="m19.499 56.84-1.666 5.83 2.849 3.27 7.127 1.955 10.079-2.963 1.105-3.64-4.66-4.759-2.113-4.863z" fill="#e6e6e6"/><path d="m26.05 51.27-6.609 5.63 6.751 3.57 7.72-3.82-1.63-5.3z" fill="#c1c1c1"/><path d="m19.499 56.84-1.666 5.83 2.849 3.27 7.127 1.955 9.678-2.912 1.093-4.796-2.85-2.157-1.631 3.342-6.397 5.655-1.405-6.367.208 4.285-1.357 1.96-2.761-2.376.084-3.844z" fill="#cdcdcd"/><path d="m35.35 67.213 7.468 2.578 7.347-1.865-1.005-5.12-4.021-1.95-.136-6.221-6.334 3.858z" fill="#e9e9e9"/><path d="m58.154 63.196.507 3.828-2.947 2.114-5.185-.092-3.092-2.762.623-3.698z" fill="#dedede"/><path d="m58.056 63.394.605 3.63-2.947 2.114-5.185-.092 3.494-2.777 2.607-.608z" fill="#fff"/><path d="m49.5 60.473 4.443.357 4.265 2.384-1.58 1.934-6.167.482-2.388-2.91zm-14.15 6.74 7.468 2.578 2.503-.58-2.191-3.735-2.242-4.422 4.115-6.42-6.334 3.86z" fill="#c1c1c1"/><path d="m47.41 64.939.275 3.617 2.48-.63-1.005-5.12-4.021-1.95-.136-6.221-.798 7.516z" fill="#dadada"/><path d="M214.711 169.602c-.26-1.508-3.895-3.864-3.895-3.864s3.672 1.75 5.153 2.027c1.48.279 2.09-2.264 2.09-2.264s.058 2.723.291 4.199c.234 1.475 3.426 2.84 3.426 2.84s-3.107-.615-4.525-.889c-1.419-.273-.76 2.648-.76 2.648s-1.52-3.19-1.78-4.697" fill="url(#b)" style="mix-blend-mode:overlay" transform="translate(-199.164 -139.164)"/><path d="M245.333 158.704c-1.623-.624-3.353 1.413-3.353 1.413s1.075-2.45 1.355-3.985-2.495-3.524-2.495-3.524 2.96 1.332 4.55 1.967c1.588.634 2.892-1.998 2.892-1.998s-.497 2.992-.772 4.458c-.276 1.466 2.035 3.496 2.035 3.496s-2.588-1.204-4.212-1.827" fill="url(#c)" style="mix-blend-mode:overlay" transform="translate(-199.164 -139.164)"/><path d="M257.574 190.482c.677-1.657 2.771-5.112 2.771-5.112s-1.638 2.83.093 3.549 4.11-.252 4.11-.252-1.638 1.352-2.327 2.966-1.914 5.24-1.914 5.24.831-2.816-.822-3.51c-1.653-.696-5.239-1.346-5.239-1.346s2.652.12 3.328-1.535" fill="url(#d)" style="mix-blend-mode:overlay" transform="translate(-199.164 -139.164)"/><path d="M242.446 180.106c1.087-.632 1.987-3.005 1.987-3.005s-.378 2.22.277 3.364 2.989 2.335 2.989 2.335-2.085-.661-3.161-.059-2.123 3.015-2.123 3.015.479-2.13-.143-3.227c-.621-1.097-3.05-2.405-3.05-2.405s2.136.613 3.224-.018" fill="url(#e)" style="mix-blend-mode:overlay" transform="translate(-199.164 -139.164)"/><path d="M231.382 189.525c1.276.586 3.55.052 3.55.052s-1.76.898-1.993 2.089c-.232 1.19.833 3.85.833 3.85s-1.216-2.153-2.466-2.746c-1.249-.593-3.663-.163-3.663-.163s1.78-.761 2.008-1.898c.229-1.137-.127-2.748-.127-2.748s.58.977 1.858 1.564" fill="url(#f)" style="mix-blend-mode:overlay" transform="translate(-199.164 -139.164)"/></g></svg>
